   <svg
width="43"
height="48"
viewBox="0 0 43 48"
fill="none"
xmlns="http://www.w3.org/2000/svg"
>
<g clip-path="url(#clip0)">
    <path
    d="M21.5093 13.2188C15.5468 13.2188 10.7375 18.0282 10.7375 23.9907C10.7375 29.9532 15.5468 34.7625 21.5093 34.7625C27.4718 34.7625 32.2812 29.9532 32.2812 23.9907C32.2812 18.0282 27.4718 13.2188 21.5093 13.2188ZM21.5093 30.9938C17.6562 30.9938 14.5062 27.8532 14.5062 23.9907C14.5062 20.1282 17.6468 16.9875 21.5093 16.9875C25.3718 16.9875 28.5125 20.1282 28.5125 23.9907C28.5125 27.8532 25.3625 30.9938 21.5093 30.9938V30.9938ZM35.2343 12.7782C35.2343 14.175 34.1093 15.2907 32.7218 15.2907C31.325 15.2907 30.2093 14.1657 30.2093 12.7782C30.2093 11.3907 31.3343 10.2657 32.7218 10.2657C34.1093 10.2657 35.2343 11.3907 35.2343 12.7782ZM42.3687 15.3282C42.2093 11.9625 41.4406 8.9813 38.975 6.52505C36.5187 4.0688 33.5375 3.30005 30.1718 3.1313C26.7031 2.93442 16.3062 2.93442 12.8375 3.1313C9.4812 3.29067 6.49995 4.05942 4.03433 6.51567C1.5687 8.97192 0.809326 11.9532 0.640576 15.3188C0.443701 18.7875 0.443701 29.1844 0.640576 32.6532C0.799951 36.0188 1.5687 39 4.03433 41.4563C6.49995 43.9125 9.47183 44.6813 12.8375 44.85C16.3062 45.0469 26.7031 45.0469 30.1718 44.85C33.5375 44.6907 36.5187 43.9219 38.975 41.4563C41.4312 39 42.2 36.0188 42.3687 32.6532C42.5656 29.1844 42.5656 18.7969 42.3687 15.3282V15.3282ZM37.8875 36.375C37.1562 38.2125 35.7406 39.6282 33.8937 40.3688C31.1281 41.4657 24.5656 41.2125 21.5093 41.2125C18.4531 41.2125 11.8812 41.4563 9.12495 40.3688C7.28745 39.6375 5.87183 38.2219 5.1312 36.375C4.03433 33.6094 4.28745 27.0469 4.28745 23.9907C4.28745 20.9344 4.0437 14.3625 5.1312 11.6063C5.86245 9.7688 7.27808 8.35317 9.12495 7.61255C11.8906 6.51567 18.4531 6.7688 21.5093 6.7688C24.5656 6.7688 31.1375 6.52505 33.8937 7.61255C35.7312 8.3438 37.1468 9.75942 37.8875 11.6063C38.9843 14.3719 38.7312 20.9344 38.7312 23.9907C38.7312 27.0469 38.9843 33.6188 37.8875 36.375Z"
    fill="black"
    />
</g>
<defs>
    <clipPath id="clip0">
    <rect
        width="42"
        height="48"
        fill="white"
        transform="translate(0.5)"
    />
    </clipPath>
</defs>
</svg>