 <svg
width="49"
height="48"
viewBox="0 0 49 48"
fill="none"
xmlns="http://www.w3.org/2000/svg"
>
<g clip-path="url(#clip0)">
    <path
    d="M43.3159 14.2233C43.3464 14.6496 43.3464 15.0761 43.3464 15.5025C43.3464 28.5075 33.448 43.4923 15.3566 43.4923C9.78297 43.4923 4.60534 41.878 0.25 39.0761C1.04191 39.1674 1.80325 39.1979 2.62562 39.1979C7.22453 39.1979 11.4581 37.6446 14.8388 34.9949C10.5139 34.9035 6.88956 32.071 5.64081 28.1725C6.25 28.2638 6.85909 28.3248 7.49875 28.3248C8.38197 28.3248 9.26528 28.2029 10.0876 27.9898C5.57997 27.076 2.19916 23.1167 2.19916 18.3349V18.2132C3.50875 18.9441 5.03172 19.401 6.64581 19.4618C3.99606 17.6953 2.26009 14.6801 2.26009 11.2689C2.26009 9.44154 2.74731 7.76641 3.60016 6.30447C8.44281 12.274 15.722 16.1724 23.8844 16.5989C23.7321 15.8679 23.6407 15.1066 23.6407 14.3451C23.6407 8.92376 28.0265 4.50757 33.4783 4.50757C36.3107 4.50757 38.8691 5.69538 40.6661 7.61416C42.8894 7.18779 45.0213 6.36541 46.9097 5.23854C46.1787 7.52285 44.6254 9.44163 42.5849 10.6598C44.5646 10.4467 46.4834 9.89838 48.2498 9.13704C46.9099 11.0862 45.2347 12.8222 43.3159 14.2233V14.2233Z"
    fill="black"
    />
</g>
<defs>
    <clipPath id="clip0">
    <rect
        width="48"
        height="48"
        fill="white"
        transform="translate(0.25)"
    />
    </clipPath>
</defs>
</svg>