 <svg
width="55"
height="48"
viewBox="0 0 55 48"
fill="none"
xmlns="http://www.w3.org/2000/svg"
>
<path
    d="M52.2801 11.6328C51.6913 9.41559 49.9563 7.66941 47.7535 7.07681C43.7607 6 27.7499 6 27.7499 6C27.7499 6 11.7393 6 7.7464 7.07681C5.54356 7.6695 3.80862 9.41559 3.21978 11.6328C2.1499 15.6516 2.1499 24.0364 2.1499 24.0364C2.1499 24.0364 2.1499 32.4212 3.21978 36.44C3.80862 38.6572 5.54356 40.3306 7.7464 40.9232C11.7393 42 27.7499 42 27.7499 42C27.7499 42 43.7606 42 47.7535 40.9232C49.9563 40.3306 51.6913 38.6572 52.2801 36.44C53.35 32.4212 53.35 24.0364 53.35 24.0364C53.35 24.0364 53.35 15.6516 52.2801 11.6328V11.6328ZM22.5135 31.6492V16.4236L35.8953 24.0366L22.5135 31.6492V31.6492Z"
    fill="black"
/>
</svg>